<svg xmlns="http://www.w3.org/2000/svg" width="1500" height="544" viewBox="0 0 1500 544">
<g transform="matrix(1,0,0,1,0.15999999999996817,-0.989840000000072)">
<svg viewBox="0 0 375 136" data-background-color="#1f2d5a" preserveAspectRatio="xMidYMid meet" height="544" width="1500" xmlns="http://www.w3.org/2000/svg">
<g id="tight-bounds" transform="matrix(1,0,0,1,-0.03976000000000113,0.247460000000018)">
<svg viewBox="0 0 375.07953 135.50508" height="135.50508" width="375.07953">
<g><svg></svg></g><g>
<svg viewBox="0 0 375.07953 135.50508" height="135.50508" width="375.07953">
<g transform="matrix(1,0,0,1,-10.22024,-59.28674000000001)">
<path d="M10.22 187.913v-128.626h375.08v128.626h-30.491l0-3.097h27.394v-122.432h-368.886v122.432h129.365l0 3.097z" fill="#fbfbfb" fill-rule="nonzero" stroke="none" stroke-width="1" stroke-linecap="butt" stroke-linejoin="miter" stroke-miterlimit="10" stroke-dasharray="" stroke-dashoffset="0" font-family="none" font-weight="none" font-size="none" text-anchor="none" style="mix-blend-mode: normal" data-fill-palette-color="tertiary"></path>
<g>
<path transform="translate(150.76904,190.53199) scale(0.37042,0.37042)" d="M20.25 0.5v0c-2.5 0-4.723-0.467-6.67-1.4-1.953-0.933-3.497-2.377-4.63-4.33-1.133-1.947-1.7-4.47-1.7-7.57v0-17.4l-4-2v-0.8h12.5v0.8l-4 2v16.65c0 2.767 0.433 4.967 1.3 6.6 0.867 1.633 2.04 2.8 3.52 3.5 1.487 0.7 3.147 1.05 4.98 1.05v0c1.467 0 2.827-0.317 4.08-0.95 1.247-0.633 2.247-1.633 3-3 0.747-1.367 1.12-3.183 1.12-5.45v0-18.5l-5-1.9v-0.8h12.45v0.8l-3.95 1.95v17.45c0 3.1-0.567 5.623-1.7 7.57-1.133 1.953-2.673 3.397-4.62 4.33-1.953 0.933-4.18 1.4-6.68 1.4zM53.55 11.5h-10.7v-0.8l3.15-1.6v-26.4l-3-2.6v-0.35l6.2-2.75h0.3l0.4 3.05h0.35c1.267-1.067 2.483-1.843 3.65-2.33 1.167-0.48 2.433-0.72 3.8-0.72v0c1.7 0 3.2 0.433 4.5 1.3 1.3 0.867 2.327 2.09 3.08 3.67 0.747 1.587 1.12 3.48 1.12 5.68v0c0 2.733-0.507 5.057-1.52 6.97-1.02 1.92-2.397 3.38-4.13 4.38-1.733 1-3.633 1.5-5.7 1.5v0c-1.867 0-3.55-0.167-5.05-0.5v0 9.1l3.55 1.6zM54.95-19.55v0c-0.8 0-1.623 0.123-2.47 0.37-0.853 0.253-1.68 0.63-2.48 1.13v0 14.05c1 0.8 2.017 1.35 3.05 1.65 1.033 0.3 2.183 0.45 3.45 0.45v0c1.6 0 2.983-0.677 4.15-2.03 1.167-1.347 1.75-3.603 1.75-6.77v0c0-2.067-0.333-3.75-1-5.05-0.667-1.3-1.567-2.26-2.7-2.88-1.133-0.613-2.383-0.92-3.75-0.92zM106.2 0h-13.5v-0.8l4.5-2v-12.6l-11.1-15.15-3.05-1.65v-0.8h12.1v0.8l-3.65 1.75v0.2l8.95 12.15 8.05-12.1v-0.2l-3.65-1.8v-0.8h10.6v0.8l-3.2 1.65-10.55 15.1v12.65l4.5 2zM130.7 0.5v0c-2.2 0-4.123-0.517-5.77-1.55-1.653-1.033-2.937-2.433-3.85-4.2-0.92-1.767-1.38-3.767-1.38-6v0c0-2.233 0.46-4.233 1.38-6 0.913-1.767 2.197-3.167 3.85-4.2 1.647-1.033 3.57-1.55 5.77-1.55v0c2.2 0 4.127 0.517 5.78 1.55 1.647 1.033 2.93 2.433 3.85 4.2 0.913 1.767 1.37 3.767 1.37 6v0c0 2.233-0.457 4.233-1.37 6-0.92 1.767-2.203 3.167-3.85 4.2-1.653 1.033-3.58 1.55-5.78 1.55zM131.4-1.65v0c1.333 0 2.433-0.417 3.3-1.25 0.867-0.833 1.5-1.91 1.9-3.23 0.4-1.313 0.6-2.687 0.6-4.12v0c0-1.767-0.24-3.467-0.72-5.1-0.487-1.633-1.253-2.967-2.3-4-1.053-1.033-2.413-1.55-4.08-1.55v0c-1.367 0-2.483 0.417-3.35 1.25-0.867 0.833-1.507 1.9-1.92 3.2-0.42 1.3-0.63 2.683-0.63 4.15v0c0 1.767 0.25 3.467 0.75 5.1 0.5 1.633 1.283 2.967 2.35 4 1.067 1.033 2.433 1.55 4.1 1.55zM155.45 0.5v0c-1.967 0-3.573-0.493-4.82-1.48-1.253-0.98-1.88-2.437-1.88-4.37v0-14.8l-3.15-1.55v-0.8h7.15v14.8c0 1.467 0.46 2.583 1.38 3.35 0.913 0.767 2.103 1.15 3.57 1.15v0c0.9 0 1.893-0.15 2.98-0.45 1.08-0.3 1.937-0.733 2.57-1.3v0-15.2l-3.55-1.55v-0.8h7.55v20.25l3.55 1.45v0.8h-7.55v-3.15h-0.25c-1.267 1.267-2.49 2.19-3.67 2.77-1.187 0.587-2.48 0.88-3.88 0.88zM185.55 0h-10.7v-0.8l3.15-1.6v-14.9l-3-2.6v-0.35l6.2-2.75h0.3l0.45 4.25h0.2c0.767-1.233 1.477-2.16 2.13-2.78 0.647-0.613 1.253-1.013 1.82-1.2 0.567-0.18 1.133-0.27 1.7-0.27v0c0.267 0 0.577 0.05 0.93 0.15 0.347 0.1 0.637 0.2 0.87 0.3v0c0.367 0.167 0.71 0.367 1.03 0.6 0.313 0.233 0.47 0.5 0.47 0.8v0c0 0.3-0.067 0.6-0.2 0.9v0l-1 2.45h-0.35l-1.9-0.75c-0.367-0.167-0.723-0.267-1.07-0.3-0.353-0.033-0.697-0.05-1.03-0.05v0c-1.4 0-2.583 0.717-3.55 2.15v0 14.35l3.55 1.6zM224.6 0.5v0c-3.4 0-6.333-0.7-8.8-2.1-2.467-1.4-4.367-3.31-5.7-5.73-1.333-2.413-2-5.17-2-8.27v0c0-2.367 0.46-4.627 1.38-6.78 0.913-2.147 2.163-4.053 3.75-5.72 1.58-1.667 3.413-2.983 5.5-3.95 2.08-0.967 4.287-1.45 6.62-1.45v0c1.667 0 3.083 0.107 4.25 0.32 1.167 0.22 2.21 0.503 3.13 0.85 0.913 0.353 1.837 0.763 2.77 1.23v0l0.25 8.75h-0.9l-3.05-6.1c-1.267-0.9-2.373-1.55-3.32-1.95-0.953-0.4-2.03-0.6-3.23-0.6v0c-2.4 0-4.54 0.6-6.42 1.8-1.887 1.2-3.37 2.84-4.45 4.92-1.087 2.087-1.63 4.48-1.63 7.18v0c0 3.167 0.527 5.877 1.58 8.13 1.047 2.247 2.463 3.96 4.25 5.14 1.78 1.187 3.753 1.78 5.92 1.78v0c1.833 0 3.377-0.26 4.63-0.78 1.247-0.513 2.353-1.087 3.32-1.72v0l3-5.35h0.85l-0.55 7.95c-0.967 0.5-1.957 0.933-2.97 1.3-1.02 0.367-2.18 0.65-3.48 0.85-1.3 0.2-2.867 0.3-4.7 0.3zM254.4 0.5v0c-2.2 0-4.123-0.517-5.77-1.55-1.653-1.033-2.937-2.433-3.85-4.2-0.92-1.767-1.38-3.767-1.38-6v0c0-2.233 0.46-4.233 1.38-6 0.913-1.767 2.197-3.167 3.85-4.2 1.647-1.033 3.57-1.55 5.77-1.55v0c2.2 0 4.127 0.517 5.78 1.55 1.647 1.033 2.93 2.433 3.85 4.2 0.913 1.767 1.37 3.767 1.37 6v0c0 2.233-0.457 4.233-1.37 6-0.92 1.767-2.203 3.167-3.85 4.2-1.653 1.033-3.58 1.55-5.78 1.55zM255.1-1.65v0c1.333 0 2.433-0.417 3.3-1.25 0.867-0.833 1.5-1.91 1.9-3.23 0.4-1.313 0.6-2.687 0.6-4.12v0c0-1.767-0.24-3.467-0.72-5.1-0.487-1.633-1.253-2.967-2.3-4-1.053-1.033-2.413-1.55-4.08-1.55v0c-1.367 0-2.483 0.417-3.35 1.25-0.867 0.833-1.507 1.9-1.92 3.2-0.42 1.3-0.63 2.683-0.63 4.15v0c0 1.767 0.25 3.467 0.75 5.1 0.5 1.633 1.283 2.967 2.35 4 1.067 1.033 2.433 1.55 4.1 1.55zM281 0h-10.7v-0.8l3.15-1.6v-14.9l-3-2.6v-0.35l6.2-2.75h0.3l0.45 3.7h0.25c1.267-1.267 2.493-2.2 3.68-2.8 1.18-0.6 2.487-0.9 3.92-0.9v0c1.967 0 3.577 0.49 4.83 1.47 1.247 0.987 1.87 2.447 1.87 4.38v0 14.75l3.15 1.6v0.8h-10.7v-0.8l3.55-1.6v-12.4c0-1.467-0.457-2.583-1.37-3.35-0.92-0.767-2.113-1.15-3.58-1.15v0c-0.9 0-1.89 0.15-2.97 0.45-1.087 0.3-1.947 0.733-2.58 1.3v0 15.15l3.55 1.6zM307.4 0.5v0c-1.467 0-2.733-0.433-3.8-1.3-1.067-0.867-1.6-2.083-1.6-3.65v0-15.7h-4.1v-0.3l4.25-2.05 3.55-5.5h0.3v5.5h6.6v2.35h-6.6v14.85c0 0.867 0.383 1.5 1.15 1.9 0.767 0.4 1.667 0.6 2.7 0.6v0c0.633 0 1.227-0.033 1.78-0.1 0.547-0.067 1.02-0.15 1.42-0.25v0h0.15v0.5c-0.333 0.767-0.99 1.483-1.97 2.15-0.987 0.667-2.263 1-3.83 1zM327.65 0.5v0c-3.233 0-5.783-0.983-7.65-2.95-1.867-1.967-2.8-4.567-2.8-7.8v0c0-2.5 0.493-4.71 1.48-6.63 0.98-1.913 2.28-3.413 3.9-4.5 1.613-1.08 3.37-1.62 5.27-1.62v0c2.633 0 4.71 0.917 6.23 2.75 1.513 1.833 2.27 4.467 2.27 7.9v0l-0.25 0.25h-14.95c0.033 1.533 0.333 2.973 0.9 4.32 0.567 1.353 1.477 2.447 2.73 3.28 1.247 0.833 2.92 1.25 5.02 1.25v0c1.833 0 3.983-0.667 6.45-2v0h0.15v0.5c-0.767 1.433-1.907 2.667-3.42 3.7-1.52 1.033-3.297 1.55-5.33 1.55zM327.05-20.8v0c-1.6 0-2.907 0.557-3.92 1.67-1.02 1.12-1.647 2.697-1.88 4.73v0h11.3c-0.367-2.267-1.007-3.9-1.92-4.9-0.92-1-2.113-1.5-3.58-1.5zM352 0h-10.7v-0.8l3.15-1.6v-14.9l-3-2.6v-0.35l6.2-2.75h0.3l0.45 3.7h0.25c1.267-1.267 2.493-2.2 3.68-2.8 1.18-0.6 2.487-0.9 3.92-0.9v0c1.967 0 3.577 0.49 4.83 1.47 1.247 0.987 1.87 2.447 1.87 4.38v0 14.75l3.15 1.6v0.8h-10.7v-0.8l3.55-1.6v-12.4c0-1.467-0.457-2.583-1.37-3.35-0.92-0.767-2.113-1.15-3.58-1.15v0c-0.9 0-1.89 0.15-2.97 0.45-1.087 0.3-1.947 0.733-2.58 1.3v0 15.15l3.55 1.6zM378.4 0.5v0c-1.467 0-2.733-0.433-3.8-1.3-1.067-0.867-1.6-2.083-1.6-3.65v0-15.7h-4.1v-0.3l4.25-2.05 3.55-5.5h0.3v5.5h6.6v2.35h-6.6v14.85c0 0.867 0.383 1.5 1.15 1.9 0.767 0.4 1.667 0.6 2.7 0.6v0c0.633 0 1.227-0.033 1.78-0.1 0.547-0.067 1.02-0.15 1.42-0.25v0h0.15v0.5c-0.333 0.767-0.99 1.483-1.97 2.15-0.987 0.667-2.263 1-3.83 1zM418.35 0.5v0c-3.2 0-6.057-0.7-8.57-2.1-2.52-1.4-4.497-3.31-5.93-5.73-1.433-2.413-2.15-5.17-2.15-8.27v0c0-2.567 0.46-4.933 1.38-7.1 0.913-2.167 2.197-4.06 3.85-5.68 1.647-1.613 3.537-2.87 5.67-3.77 2.133-0.9 4.433-1.35 6.9-1.35v0c1.733 0 3.217 0.1 4.45 0.3 1.233 0.2 2.333 0.483 3.3 0.85 0.967 0.367 1.933 0.783 2.9 1.25v0l0.25 8.25h-0.8l-3.25-5.6c-1.4-0.967-2.59-1.633-3.57-2-0.987-0.367-2.113-0.55-3.38-0.55v0c-2.567 0-4.85 0.557-6.85 1.67-2 1.12-3.567 2.653-4.7 4.6-1.133 1.953-1.7 4.163-1.7 6.63v0c0 3.333 0.61 6.167 1.83 8.5 1.213 2.333 2.853 4.117 4.92 5.35 2.067 1.233 4.367 1.85 6.9 1.85v0c1.1 0 2.16-0.067 3.18-0.2 1.013-0.133 2.07-0.417 3.17-0.85v0-8.25l-4.45-2v-0.8h12.4v0.8l-3.45 2.15v7.85c-1.533 1.267-3.423 2.283-5.67 3.05-2.253 0.767-4.463 1.15-6.63 1.15zM444.4 0.5v0c-1.567 0-2.867-0.46-3.9-1.38-1.033-0.913-1.55-2.187-1.55-3.82v0c0-1.633 0.61-3.05 1.83-4.25 1.213-1.2 3.253-2.133 6.12-2.8v0l4.75-1.1v-3.65c0-1.133-0.457-2.11-1.37-2.93-0.92-0.813-1.963-1.22-3.13-1.22v0c-1.267 0-2.15 0.34-2.65 1.02-0.5 0.687-0.75 1.597-0.75 2.73v0 1.4l-0.25 0.25h-2.6c-0.5 0-0.84-0.083-1.02-0.25-0.187-0.167-0.28-0.55-0.28-1.15v0c0-0.733 0.217-1.483 0.65-2.25 0.433-0.767 1.1-1.433 2-2v0c0.933-0.6 1.91-1.1 2.93-1.5 1.013-0.4 2.103-0.6 3.27-0.6v0c1.167 0 2.31 0.167 3.43 0.5 1.113 0.333 2.02 0.89 2.72 1.67 0.7 0.787 1.05 1.88 1.05 3.28v0 14.2c0.233 0.233 0.567 0.433 1 0.6 0.433 0.167 1.033 0.25 1.8 0.25v0h1.9l0.15 0.1v0.15c-0.4 0.733-0.99 1.373-1.77 1.92-0.787 0.553-1.747 0.83-2.88 0.83v0c-1.033 0-1.873-0.277-2.52-0.83-0.653-0.547-1.113-1.27-1.38-2.17v0h-0.3c-0.867 0.867-1.94 1.583-3.22 2.15-1.287 0.567-2.63 0.85-4.03 0.85zM442.85-5.7v0c0 2.067 1.25 3.1 3.75 3.1v0c0.8 0 1.593-0.083 2.38-0.25 0.78-0.167 1.67-0.467 2.67-0.9v0-7.4c-2.667 0.5-4.617 1.023-5.85 1.57-1.233 0.553-2.033 1.147-2.4 1.78-0.367 0.633-0.55 1.333-0.55 2.1zM473.85 0h-10.4v-0.8l3.15-1.6v-14.9l-3-2.6v-0.35l6.2-2.75h0.3l0.45 3.7h0.25c1.233-1.267 2.427-2.2 3.58-2.8 1.147-0.6 2.403-0.9 3.77-0.9v0c1.6 0 2.967 0.357 4.1 1.07 1.133 0.72 1.867 1.797 2.2 3.23v0h0.15c1.4-1.467 2.71-2.55 3.93-3.25 1.213-0.7 2.553-1.05 4.02-1.05v0c1.867 0 3.41 0.49 4.63 1.47 1.213 0.987 1.82 2.447 1.82 4.38v0 14.75l3.15 1.6v0.8h-10.7v-0.8l3.55-1.6v-12.4c0-1.467-0.44-2.583-1.32-3.35-0.887-0.767-2.013-1.15-3.38-1.15v0c-1.133 0-2.2 0.183-3.2 0.55-1 0.367-1.833 0.917-2.5 1.65v0 14.7l3.45 1.6v0.8h-10.8v-0.8l3.35-1.6v-12.4c0-1.467-0.44-2.583-1.32-3.35-0.887-0.767-2.013-1.15-3.38-1.15v0c-0.833 0-1.767 0.15-2.8 0.45-1.033 0.3-1.867 0.733-2.5 1.3v0 15.15l3.25 1.6zM517 0.5v0c-3.233 0-5.783-0.983-7.65-2.95-1.867-1.967-2.8-4.567-2.8-7.8v0c0-2.5 0.493-4.71 1.48-6.63 0.98-1.913 2.28-3.413 3.9-4.5 1.613-1.08 3.37-1.62 5.27-1.62v0c2.633 0 4.707 0.917 6.22 2.75 1.52 1.833 2.28 4.467 2.28 7.9v0l-0.25 0.25h-14.95c0.033 1.533 0.333 2.973 0.9 4.32 0.567 1.353 1.477 2.447 2.73 3.28 1.247 0.833 2.92 1.25 5.02 1.25v0c1.833 0 3.983-0.667 6.45-2v0h0.15v0.5c-0.767 1.433-1.907 2.667-3.42 3.7-1.52 1.033-3.297 1.55-5.33 1.55zM516.4-20.8v0c-1.6 0-2.907 0.557-3.92 1.67-1.02 1.12-1.647 2.697-1.88 4.73v0h11.3c-0.367-2.267-1.007-3.9-1.92-4.9-0.92-1-2.113-1.5-3.58-1.5z" fill="#aaaaaa" fill-rule="nonzero" stroke="none" stroke-width="1" stroke-linecap="butt" stroke-linejoin="miter" stroke-miterlimit="10" stroke-dasharray="" stroke-dashoffset="0" font-family="none" font-weight="none" font-size="none" text-anchor="none" style="mix-blend-mode: normal" data-fill-palette-color="secondary" id="text-1"></path></g></g><g transform="matrix(1,0,0,1,29.33176499999999,44.02192925865311)"><svg viewBox="0 0 316.416 47.46122148269377" height="47.46122148269377" width="316.416"><g>
<svg viewBox="0 0 383.82250014052937 57.571945442742866" height="47.46122148269377" width="316.416">
<g transform="matrix(1,0,0,1,0,7.9567594642285755)"><svg viewBox="0 0 316.416 41.658426514285715" height="41.658426514285715" width="316.416">
<g id="textblocktransform">
<svg viewBox="0 0 316.416 41.658426514285715" height="41.658426514285715" width="316.416" id="textblock"><g>
<svg viewBox="0 0 316.416 41.658426514285715" height="41.658426514285715" width="316.416">
<g transform="matrix(1,0,0,1,0,0)">
<svg width="316.416" viewBox="5 -28.8 218.74 28.8" height="41.658426514285715" data-palette-color="#fbfbfb">
<path d="M5 0L5-28.75 21-28.75 21-23.1 11.3-23.1 11.3-5.85 21-5.85 21 0 5 0ZM39.45-3.4L39.45-25.3 33.8-28.75 23.45-28.75 23.45-23.1 33.15-23.1 33.15-5.85 23.45-5.85 23.45 0 33.8 0 39.45-3.4ZM47.45-28.75L47.45-28.75 53.75-28.75 53.75-5.85 63.45-5.85 63.45 0 53.15 0 47.45-3.4 47.45-28.75ZM81.9-28.75L81.9-28.75 75.6-28.75 75.6-5.85 65.9-5.85 65.9 0 76.25 0 81.9-3.4 81.9-28.75ZM89.9-3.4L89.9-25.3 95.75-28.75 106.1-28.75 106.1-23.1 96.4-23.1 96.4-5.85 105.9-5.85 105.9 0 95.75 0 89.9-3.4ZM124.55-9.3L118.05-9.3 118.05-5.85 108.55-5.85 108.55 0 118.7 0 124.55-3.4 124.55-9.3ZM118.05-19.6L124.55-19.6 124.55-25.3 118.7-28.75 108.35-28.75 108.35-23.1 118.05-23.1 118.05-19.6ZM129.44-25.3L129.44-25.3 135.14-28.75 145.44-28.75 145.44-23.1 135.74-23.1 135.74-17.2 145.44-17.2 145.44-11.5 135.74-11.5 135.74 0 129.44 0 129.44-25.3ZM163.89-25.3L163.89-25.3 157.99-28.75 147.69-28.75 147.69-23.1 157.59-23.1 157.59-17.2 147.69-17.2 147.69-11.5 157.59-11.5 157.59 0 163.89 0 163.89-25.3ZM183.69-14.8L183.69-14.8 183.69-12.35 171.89-12.35 171.89-14.8 183.69-14.8ZM223.74-28.8L223.74-0.05 217.89-0.05 217.89-11.4 207.54-11.4 207.54-17.25 217.89-17.25 217.89-28.8 223.74-28.8ZM205.89-28.6L199.04-17.25 205.09-17.25 205.09-11.4 188.69-11.4 199.04-28.6 205.89-28.6Z" opacity="1" transform="matrix(1,0,0,1,0,0)" fill="#fbfbfb" class="wordmark-text-0" data-fill-palette-color="primary" id="text-0"></path>
</svg></g></svg></g></svg></g></svg>
</g><g transform="matrix(1,0,0,1,326.2505546977865,0)">
<svg viewBox="0 0 57.571945442742866 57.571945442742866" height="57.571945442742866" width="57.571945442742866">
<g>
<svg xmlns="http://www.w3.org/2000/svg" xmlns:xlink="http://www.w3.org/1999/xlink" version="1.1" x="0" y="0" viewBox="0 0 128 128" style="enable-background:new 0 0 128 128;" xml:space="preserve" height="57.571945442742866" width="57.571945442742866" class="icon-icon-0" data-fill-palette-color="accent" id="icon-0">
<path d="M114 39h-3.695c2.835-1.992 4.695-5.28 4.695-9 0-6.065-4.935-11-11-11s-11 4.935-11 11c0 3.72 1.861 7.008 4.695 9H84.414L83 37.586V14.899c2.279-0.465 4-2.484 4-4.899 0-2.757-2.243-5-5-5H10c-2.757 0-5 2.243-5 5 0 2.414 1.721 4.434 4 4.899v54.202C6.721 69.566 5 71.586 5 74c0 2.757 2.243 5 5 5h72c2.757 0 5-2.243 5-5 0-2.414-1.721-4.434-4-4.899V49h10v38.426c-3.118 0.886-5.671 3.112-7 6.018C84.264 89.649 80.439 87 76 87s-8.264 2.649-10 6.444C64.264 89.649 60.439 87 56 87s-8.264 2.649-10 6.444C44.264 89.649 40.439 87 36 87s-8.264 2.649-10 6.444C24.264 89.649 20.439 87 16 87 9.935 87 5 91.935 5 98c0 4.439 2.649 8.264 6.444 10C7.649 109.736 5 113.561 5 118v6h2v-6c0-4.963 4.037-9 9-9s9 4.037 9 9v6h2v-6c0-4.963 4.037-9 9-9s9 4.037 9 9v6h2v-6c0-4.963 4.037-9 9-9s9 4.037 9 9v6h2v-6c0-4.963 4.037-9 9-9s9 4.037 9 9v6h2v-6c0-4.963 4.037-9 9-9s9 4.037 9 9v6h2v-6c0-4.439-2.649-8.264-6.444-10 3.796-1.736 6.444-5.561 6.444-10 0-3.72-1.861-7.008-4.695-9H104h10c0.553 0 1-0.448 1-1V63h7c0.553 0 1-0.448 1-1V48C123 43.038 118.963 39 114 39zM95 30c0-4.962 4.037-9 9-9s9 4.038 9 9-4.037 9-9 9S95 34.962 95 30zM7 10c0-1.654 1.346-3 3-3h72c1.654 0 3 1.346 3 3s-1.346 3-3 3H10C8.346 13 7 11.654 7 10zM85 74c0 1.654-1.346 3-3 3H10c-1.654 0-3-1.346-3-3s1.346-3 3-3h72C83.654 71 85 72.346 85 74zM81 69H11V15h70v20.586l-8.293-8.293c-0.391-0.391-1.023-0.391-1.414 0l-6 6c-0.391 0.391-0.391 1.023 0 1.414l14 14C79.48 48.895 79.734 49 80 49h1V69zM76 89c4.963 0 9 4.038 9 9 0 4.963-4.037 9-9 9s-9-4.037-9-9C67 93.038 71.037 89 76 89zM56 89c4.963 0 9 4.038 9 9 0 4.963-4.037 9-9 9s-9-4.037-9-9C47 93.038 51.037 89 56 89zM36 89c4.963 0 9 4.038 9 9 0 4.963-4.037 9-9 9s-9-4.037-9-9C27 93.038 31.037 89 36 89zM7 98c0-4.962 4.037-9 9-9s9 4.038 9 9c0 4.963-4.037 9-9 9S7 102.963 7 98zM26 113.444c-1.1-2.405-3.039-4.344-5.444-5.444 2.405-1.1 4.344-3.039 5.444-5.444 1.1 2.405 3.039 4.344 5.444 5.444C29.039 109.1 27.1 111.039 26 113.444zM46 113.444c-1.1-2.405-3.039-4.344-5.444-5.444 2.405-1.1 4.344-3.039 5.444-5.444 1.1 2.405 3.039 4.344 5.444 5.444C49.039 109.1 47.1 111.039 46 113.444zM66 113.444c-1.1-2.405-3.039-4.344-5.444-5.444 2.405-1.1 4.344-3.039 5.444-5.444 1.1 2.405 3.039 4.344 5.444 5.444C69.039 109.1 67.1 111.039 66 113.444zM86 113.444c-1.1-2.405-3.039-4.344-5.444-5.444 2.405-1.1 4.344-3.039 5.444-5.444 1.1 2.405 3.039 4.344 5.444 5.444C89.039 109.1 87.1 111.039 86 113.444zM105 98c0 4.963-4.037 9-9 9s-9-4.037-9-9c0-4.962 4.037-9 9-9S105 93.038 105 98zM121 61h-6V48h-2v39h-8V64h-2v23h-8V48c0-0.552-0.447-1-1-1H80.414l-13-13L72 29.414l11.293 11.293C83.48 40.895 83.734 41 84 41h30c3.859 0 7 3.14 7 7V61z" fill="#2f76db" data-fill-palette-color="accent"></path>
<path d="M74 51H50c-0.553 0-1 0.448-1 1v5H31v-6h11c0.553 0 1-0.448 1-1V40c0-0.552-0.447-1-1-1H31v-6h11c0.553 0 1-0.448 1-1V22c0-0.552-0.447-1-1-1H18c-0.553 0-1 0.448-1 1v10c0 0.552 0.447 1 1 1h11v6H18c-0.553 0-1 0.448-1 1v10c0 0.552 0.447 1 1 1h11v7c0 0.552 0.447 1 1 1h19v3c0 0.552 0.447 1 1 1h24c0.553 0 1-0.448 1-1V52C75 51.448 74.553 51 74 51zM19 23h22v8H19V23zM19 41h22v8H19V41zM73 61H51v-8h22V61z" fill="#2f76db" data-fill-palette-color="accent"></path>
<rect x="48" y="21" width="2" height="2" fill="#2f76db" data-fill-palette-color="accent"></rect>
<rect x="48" y="29" width="2" height="2" fill="#2f76db" data-fill-palette-color="accent"></rect>
<rect x="56" y="29" width="2" height="2" fill="#2f76db" data-fill-palette-color="accent"></rect>
<rect x="48" y="37" width="2" height="2" fill="#2f76db" data-fill-palette-color="accent"></rect>
<rect x="56" y="21" width="2" height="2" fill="#2f76db" data-fill-palette-color="accent"></rect>
<rect x="64" y="21" width="2" height="2" fill="#2f76db" data-fill-palette-color="accent"></rect>
</svg></g></svg></g></svg></g></svg></g></svg></g><defs></defs></svg> 
<rect width="375.07953" height="135.50508" fill="none" stroke="none" visibility="hidden"></rect>
</g></svg></g></svg>